<svg xmlns="http://www.w3.org/2000/svg" viewBox="0 0 128 128" style="enable-background:new 0 0 128 128" xml:space="preserve"><path d="M98.5 79.7v15.6H77.4L74.6 65c-.1-1.6-1.5-2.8-3-2.8H55c2.7-1.4 5.7-2.1 8.8-2.1H79c10.7.1 19.5 8.8 19.5 19.6z" style="fill:#318fb5"/><circle cx="71.3" cy="42.4" style="fill:#eabfa2" r="17.8"/><path d="M77.4 95.3H33.3c-1.9 0-3.5-1.5-3.7-3.4l-2.4-26.3c-.2-1.7 1.1-3.2 2.8-3.3H71.6c1.6 0 2.9 1.2 3 2.8l2.8 30.2z" style="fill:#80bfbe"/><path d="M77.4 95.3h6.9c2.1 0 3.9-1.5 4.3-3.6l.6-3.5H76.7l.7 7.1z" style="fill:#b8d8d3"/><path d="M26.4 95.3h75.7c1.8 0 3.2 1.4 3.2 3.2 0 1.8-1.4 3.2-3.2 3.2H26.4c-1.8 0-3.2-1.4-3.2-3.2.1-1.8 1.5-3.2 3.2-3.2z" style="fill:#005086"/><circle cx="52.3" cy="78.8" r="3.5" style="fill:#f7d6bf"/><path d="m26.6 77.9-.2-1.7c-.1-1 .6-1.8 1.6-1.9 1-.1 1.8.6 1.9 1.6l.2 1.7c.1 1-.6 1.8-1.6 1.9-1 .1-1.8-.6-1.9-1.6zm80.5 20.6c0 2.7-2.2 5-4.9 5H26.4c-2.7-.1-4.9-2.3-4.9-5 .1-2.7 2.2-4.8 4.9-4.9h1.8c-.2-.5-.3-.9-.4-1.4l-.6-6.7c-.1-1 .6-1.8 1.6-1.9.9-.1 1.8.6 1.9 1.5 0 .1.6 6.6.6 6.7.1 1 .9 1.8 2 1.8h42.1l-2.6-28.4c-.1-.7-.6-1.2-1.3-1.2H30.2c-.8 0-1.4.7-1.3 1.4l.3 3.3c.1 1-.6 1.8-1.6 1.9-1 .1-1.8-.6-1.9-1.6l-.3-3.3c-.3-2.8 2-5.3 4.8-5.3h24.3c1.9-.9 3.9-1.5 6-1.8-9-6-11.5-18.1-5.5-27.1S73.1 20 82.1 26s11.5 18.1 5.5 27.1c-1.5 2.2-3.4 4.1-5.6 5.6a21.31 21.31 0 0 1 18.1 21.1v13.8h1.9c2.9 0 5.1 2.2 5.1 4.9zM87 90h-8.3l.3 3.6h5.3c1.2 0 2.3-.9 2.5-2.1L87 90zm-8.1-28.1h-4c.7.7 1.3 1.8 1.4 3l2 21.6h10.8c1.1 0 1.9 1 1.7 2l-.6 3.5c-.1.5-.3 1.1-.5 1.6h7V79.7c0-9.8-7.9-17.8-17.8-17.8zm-7.6-3.5c8.9 0 16.1-7.2 16.1-16C87.4 31 75.8 23 65 27.6c-8.2 3.5-11.9 12.9-8.5 21.1 2.6 5.9 8.4 9.7 14.8 9.7zm32.3 40.1c0-.8-.6-1.5-1.4-1.5H26.4c-.8 0-1.4.7-1.4 1.5s.6 1.4 1.4 1.4h75.7c.9.1 1.5-.6 1.5-1.4z" style="fill:#172956"/></svg>